<svg width="37" height="24" viewBox="0 0 37 24" fill="none" xmlns="http://www.w3.org/2000/svg">
<path d="M0.126755 0.145996H36.8639V23.5339H0.136492L0.126755 0.145996Z" fill="white"/>
<path d="M36.737 13.1545C36.737 13.1545 26.6984 20.2332 8.31521 23.4074H36.737V13.1545Z" fill="#F48120"/>
<path d="M36.8637 0.00973744H0V23.6703H37V0H36.8637V0.00973744ZM36.7371 0.272632C36.7371 0.535527 36.7371 23.1347 36.7371 23.3976C36.4742 23.3976 0.535526 23.3976 0.272631 23.3976C0.272631 23.1347 0.272631 0.535527 0.272631 0.272632C0.535526 0.272632 36.4645 0.272632 36.7371 0.272632Z" fill="#CDCFD3"/>
<path d="M3.23275 7.24414H1.70407V12.5994H3.23275C4.04091 12.5994 4.62512 12.4047 5.14118 11.986C5.7546 11.4797 6.11486 10.7202 6.11486 9.93151C6.10512 8.3444 4.92697 7.24414 3.23275 7.24414ZM4.4596 11.2752C4.12854 11.5673 3.70986 11.7036 3.02828 11.7036H2.74591V8.1594H3.02828C3.70012 8.1594 4.10907 8.27625 4.4596 8.58783C4.81986 8.90914 5.03407 9.40572 5.03407 9.92177C5.03407 10.4378 4.81986 10.9539 4.4596 11.2752Z" fill="#231F20"/>
<path d="M7.63375 7.24414H6.5919V12.5994H7.63375V7.24414Z" fill="#231F20"/>
<path d="M10.1846 9.29863C9.56149 9.06494 9.37649 8.90915 9.37649 8.62679C9.37649 8.286 9.70754 8.03284 10.1554 8.03284C10.467 8.03284 10.7299 8.15942 10.9928 8.471L11.5381 7.76021C11.0902 7.37073 10.5546 7.16626 9.9607 7.16626C9.01622 7.16626 8.28596 7.82837 8.28596 8.70468C8.28596 9.44468 8.62675 9.82442 9.60043 10.1749C10.0094 10.321 10.2139 10.4184 10.321 10.4768C10.5254 10.6131 10.6325 10.8078 10.6325 11.0318C10.6325 11.4699 10.2917 11.7913 9.82438 11.7913C9.3278 11.7913 8.92859 11.5381 8.68517 11.0805L8.01333 11.7328C8.49043 12.4436 9.07464 12.7552 9.86333 12.7552C10.9441 12.7552 11.7133 12.0347 11.7133 10.9928C11.7328 10.1263 11.3725 9.73679 10.1846 9.29863Z" fill="#231F20"/>
<path d="M12.0544 9.93165C12.0544 11.509 13.291 12.7261 14.8781 12.7261C15.326 12.7261 15.7154 12.6385 16.1828 12.4145V11.1877C15.7641 11.6064 15.3941 11.7719 14.9267 11.7719C13.8752 11.7719 13.1254 11.0124 13.1254 9.92191C13.1254 8.88981 13.8946 8.08165 14.8781 8.08165C15.3746 8.08165 15.7544 8.25692 16.1828 8.68534V7.45849C15.7252 7.22481 15.3454 7.12744 14.8975 7.12744C13.3299 7.12744 12.0544 8.37376 12.0544 9.93165Z" fill="#231F20"/>
<path d="M24.4784 10.8468L23.0471 7.24414H21.9079L24.1765 12.7357H24.7413L27.0489 7.24414H25.9194L24.4784 10.8468Z" fill="#231F20"/>
<path d="M27.5262 12.5994H30.4862V11.6939H28.5681V10.2528H30.4181V9.3473H28.5681V8.1594H30.4862V7.24414H27.5262V12.5994Z" fill="#231F20"/>
<path d="M34.6242 8.83128C34.6242 7.82838 33.9329 7.25391 32.7255 7.25391H31.1774V12.6092H32.2192V10.4573H32.3555L33.7966 12.6092H35.0818L33.3974 10.3502C34.1861 10.1847 34.6242 9.64917 34.6242 8.83128ZM32.5211 9.71733H32.2192V8.09128H32.5405C33.1929 8.09128 33.5434 8.36391 33.5434 8.8897C33.5434 9.42522 33.1929 9.71733 32.5211 9.71733Z" fill="#231F20"/>
<path d="M19.386 12.7942C20.9616 12.7942 22.2389 11.5169 22.2389 9.94127C22.2389 8.36566 20.9616 7.08838 19.386 7.08838C17.8104 7.08838 16.5331 8.36566 16.5331 9.94127C16.5331 11.5169 17.8104 12.7942 19.386 12.7942Z" fill="url(#paint0_linear)"/>
<path opacity="0.65" d="M19.386 12.7942C20.9616 12.7942 22.2389 11.5169 22.2389 9.94127C22.2389 8.36566 20.9616 7.08838 19.386 7.08838C17.8104 7.08838 16.5331 8.36566 16.5331 9.94127C16.5331 11.5169 17.8104 12.7942 19.386 12.7942Z" fill="url(#paint1_linear)"/>
<path d="M35.2863 7.44879C35.2863 7.35142 35.2181 7.30273 35.111 7.30273H34.9552V7.7701H35.072V7.5851L35.2084 7.7701H35.3447L35.1889 7.57537C35.2473 7.56563 35.2863 7.51694 35.2863 7.44879ZM35.0915 7.51695H35.072V7.39037H35.0915C35.1499 7.39037 35.1791 7.40984 35.1791 7.44879C35.1791 7.49747 35.1499 7.51695 35.0915 7.51695Z" fill="#231F20"/>
<path d="M35.1305 7.12744C34.9066 7.12744 34.7216 7.31244 34.7216 7.53639C34.7216 7.76034 34.9066 7.94534 35.1305 7.94534C35.3545 7.94534 35.5395 7.76034 35.5395 7.53639C35.5395 7.31244 35.3545 7.12744 35.1305 7.12744ZM35.1305 7.87718C34.9553 7.87718 34.7995 7.73113 34.7995 7.53639C34.7995 7.35139 34.9455 7.1956 35.1305 7.1956C35.3058 7.1956 35.4519 7.35139 35.4519 7.53639C35.4519 7.72139 35.3058 7.87718 35.1305 7.87718Z" fill="#231F20"/>
<defs>
<linearGradient id="paint0_linear" x1="20.8441" y1="12.2243" x2="18.872" y2="9.13655" gradientUnits="userSpaceOnUse">
<stop stop-color="#F89F20"/>
<stop offset="0.2502" stop-color="#F79A20"/>
<stop offset="0.5331" stop-color="#F68D20"/>
<stop offset="0.6196" stop-color="#F58720"/>
<stop offset="0.7232" stop-color="#F48120"/>
<stop offset="1" stop-color="#F37521"/>
</linearGradient>
<linearGradient id="paint1_linear" x1="20.5328" y1="12.1827" x2="17.6505" y2="6.54915" gradientUnits="userSpaceOnUse">
<stop stop-color="#F58720"/>
<stop offset="0.3587" stop-color="#E16F27"/>
<stop offset="0.703" stop-color="#D4602C"/>
<stop offset="0.9816" stop-color="#D05B2E"/>
</linearGradient>
</defs>
</svg>
