<svg width="38" height="24" viewBox="0 0 38 24" fill="none" xmlns="http://www.w3.org/2000/svg">
<rect width="38" height="23.75" rx="3" fill="black"/>
<path d="M31.4223 16.6387V16.3347H31.3431L31.2515 16.5433L31.1605 16.3347H31.0811V16.6387H31.1373V16.4097L31.2229 16.6073H31.2812L31.3668 16.4092V16.6387H31.4225H31.4223ZM30.9201 16.6387V16.3868H31.0214V16.3355H30.7625V16.3868H30.8639V16.6387H30.9196H30.9201Z" fill="#F79410"/>
<path d="M22.4253 17.9423H15.5752V5.63184H22.4254L22.4253 17.9423Z" fill="#FF5F00"/>
<path d="M16.0097 11.7874C16.0097 9.29026 17.1789 7.06577 18.9996 5.6322C17.6214 4.54547 15.9168 3.95567 14.1617 3.95826C9.83821 3.95826 6.33353 7.46345 6.33353 11.7874C6.33353 16.1114 9.83821 19.6166 14.1617 19.6166C15.9168 19.6192 17.6215 19.0294 18.9998 17.9427C17.1791 16.5094 16.0097 14.2847 16.0097 11.7874Z" fill="#EB001B"/>
<path d="M31.6669 11.7874C31.6669 16.1114 28.1622 19.6166 23.8387 19.6166C22.0834 19.6192 20.3785 19.0294 19 17.9427C20.8213 16.5091 21.9905 14.2847 21.9905 11.7874C21.9905 9.29013 20.8213 7.06577 19 5.6322C20.3785 4.54551 22.0833 3.95571 23.8386 3.95826C28.1621 3.95826 31.6668 7.46345 31.6668 11.7874" fill="#F79E1B"/>
</svg>
