<svg xmlns="http://www.w3.org/2000/svg" width="45" height="45" viewBox="0 0 45 45">
<style>
  .a { fill: #238EC2; }
  .b { fill: #253667; }
</style>
  <defs>
    <polygon points="0 0 33.3 0 33.3 9.7 0 9.7"/>
    <polygon points="0.1 0 28 0 28 12 0.1 12"/>
  </defs>
  <g fill="none">
      <g transform="translate(-1082 -339)translate(1082 339)">
        <g transform="translate(0 32.38785)">
          <path d="M30.7 3.3C30.5 4.6 29.5 4.6 28.6 4.6L28.1 4.6 28.4 2.2C28.4 2.1 28.6 2 28.7 2L29 2C29.6 2 30.2 2 30.5 2.3 30.7 2.5 30.7 2.9 30.7 3.3ZM30.3 0L26.8 0C26.5 0 26.3 0.2 26.3 0.5L24.9 9.4C24.8 9.6 25 9.7 25.2 9.7L27 9.7C27.1 9.7 27.3 9.6 27.3 9.4L27.7 6.9C27.7 6.7 27.9 6.5 28.2 6.5L29.3 6.5C31.6 6.5 32.9 5.4 33.2 3.2 33.4 2.2 33.2 1.5 32.8 0.9 32.3 0.3 31.4 0 30.3 0L30.3 0Z" mask="url(#mask-2)" class="a"/>
          <path d="M5.8 3.3C5.6 4.6 4.6 4.6 3.7 4.6L3.2 4.6 3.6 2.2C3.6 2.1 3.7 2 3.8 2L4.1 2C4.7 2 5.3 2 5.6 2.3 5.8 2.5 5.9 2.9 5.8 3.3ZM5.4 0L1.9 0C1.7 0 1.5 0.2 1.4 0.5L0 9.4C0 9.6 0.1 9.7 0.3 9.7L2 9.7C2.2 9.7 2.4 9.6 2.4 9.3L2.8 6.9C2.9 6.7 3.1 6.5 3.3 6.5L4.4 6.5C6.7 6.5 8 5.4 8.4 3.2 8.5 2.2 8.4 1.5 7.9 0.9 7.4 0.3 6.5 0 5.4 0L5.4 0Z" mask="url(#mask-2)" class="b"/>
        </g>
        <path d="M13.5 38.9C13.3 39.9 12.6 40.5 11.6 40.5 11.1 40.5 10.7 40.3 10.5 40 10.2 39.8 10.1 39.3 10.2 38.9 10.4 37.9 11.1 37.3 12.1 37.3 12.6 37.3 12.9 37.4 13.2 37.7 13.4 38 13.5 38.4 13.5 38.9ZM15.8 35.7L14.1 35.7C14 35.7 13.9 35.8 13.8 35.9L13.8 36.4 13.7 36.2C13.3 35.7 12.5 35.5 11.7 35.5 9.8 35.5 8.3 36.9 8 38.9 7.8 39.8 8 40.8 8.6 41.4 9.1 42 9.8 42.3 10.7 42.3 12.2 42.3 13 41.3 13 41.3L12.9 41.8C12.9 42 13 42.1 13.2 42.1L14.7 42.1C14.9 42.1 15.2 41.9 15.2 41.7L16.1 36C16.1 35.8 16 35.7 15.8 35.7L15.8 35.7Z" class="b"/>
        <path d="M38.3 38.9C38.2 39.9 37.4 40.5 36.5 40.5 36 40.5 35.6 40.3 35.3 40 35.1 39.8 35 39.3 35.1 38.9 35.2 37.9 36 37.3 37 37.3 37.4 37.3 37.8 37.4 38.1 37.7 38.3 38 38.4 38.4 38.3 38.9ZM40.7 35.7L39 35.7C38.9 35.7 38.7 35.8 38.7 35.9L38.6 36.4 38.5 36.2C38.2 35.7 37.4 35.5 36.6 35.5 34.7 35.5 33.1 36.9 32.8 38.9 32.7 39.8 32.9 40.8 33.5 41.4 34 42 34.7 42.3 35.6 42.3 37 42.3 37.9 41.3 37.9 41.3L37.8 41.8C37.8 42 37.9 42.1 38.1 42.1L39.6 42.1C39.8 42.1 40 41.9 40.1 41.7L41 36C41 35.8 40.9 35.7 40.7 35.7L40.7 35.7Z" class="a"/>
        <g transform="translate(16.848 32.38785)">
          <path d="M7.8 3.3L6.2 3.3C6 3.3 5.9 3.3 5.8 3.5L3.5 6.9 2.5 3.6C2.4 3.4 2.2 3.3 2 3.3L0.4 3.3C0.2 3.3 0 3.5 0.1 3.7L1.9 9.1 0.2 11.5C0.1 11.7 0.2 12 0.4 12L2.1 12C2.3 12 2.4 11.9 2.5 11.8L8.1 3.7C8.2 3.5 8.1 3.3 7.8 3.3" mask="url(#mask-4)" class="b"/>
          <path d="M25.8 0.3L24.4 9.4C24.3 9.6 24.5 9.7 24.7 9.7L26.1 9.7C26.3 9.7 26.5 9.6 26.6 9.3L28 0.4C28 0.2 27.9 0 27.7 0L26.1 0C25.9 0 25.8 0.1 25.8 0.3" mask="url(#mask-4)" class="a"/>
        </g>
        <path d="M32.1 2.2C30.7 0.7 28.3 0 25.2 0L16.2 0C15.6 0 15 0.5 14.9 1.1L11.2 24.8C11.1 25.3 11.5 25.7 12 25.7L17.5 25.7 17.1 28.2C17.1 28.6 17.4 28.9 17.8 28.9L22.5 28.9C23 28.9 23.5 28.5 23.6 28L23.6 27.7 24.5 22.2 24.6 21.8C24.7 21.3 25.1 20.9 25.7 20.9L26.4 20.9C30.9 20.9 34.5 19.1 35.5 13.7 35.9 11.5 35.7 9.6 34.6 8.3 34.2 7.9 33.8 7.6 33.3 7.4 33.6 5.1 33.3 3.6 32.1 2.2Z" class="a"/>
        <path d="M33.3 7.4C33.6 5.1 33.3 3.6 32.1 2.2 30.7 0.7 28.3 0 25.2 0L16.2 0C15.6 0 15 0.5 14.9 1.1L11.2 24.8C11.1 25.3 11.5 25.7 12 25.7L17.5 25.7 18.9 16.9 18.9 17.2C19 16.5 19.5 16.1 20.1 16.1L22.8 16.1C28 16.1 32 14 33.2 7.9 33.2 7.7 33.3 7.5 33.3 7.4" fill="#20274F"/>
        <path d="M20.4 7.4C20.5 7 20.7 6.7 21 6.5 21.2 6.5 21.3 6.4 21.5 6.4L28.6 6.4C29.4 6.4 30.2 6.5 30.9 6.6 31.1 6.6 31.3 6.7 31.5 6.7 31.7 6.8 31.9 6.8 32 6.9 32.1 6.9 32.2 6.9 32.3 6.9 32.7 7.1 33 7.2 33.3 7.4 33.6 5.1 33.3 3.6 32.1 2.2 30.7 0.7 28.3 0 25.2 0L16.2 0C15.6 0 15 0.5 14.9 1.1L11.2 24.8C11.1 25.3 11.5 25.7 12 25.7L17.5 25.7 20.4 7.4" class="b"/>
      </g>
  </g>
</svg>