<svg width="38" height="24" viewBox="0 0 38 24" fill="none" xmlns="http://www.w3.org/2000/svg">
<path fill-rule="evenodd" clip-rule="evenodd" d="M38 2.73065C38 0.905477 37.0515 0 35.2115 0H2.78834C1.86864 0 1.19309 0.244344 0.747456 0.747252C0.244548 1.25036 0 1.89707 0 2.73065V21.242C0 22.0755 0.244548 22.7078 0.747456 23.2252C1.26499 23.7283 1.92612 23.9726 2.78834 23.9726H35.2115C37.0515 23.9726 38 23.0531 38 21.2422V2.73065ZM35.2115 0.431208C36.7348 0.431208 37.5111 1.2073 37.5111 2.73065V21.242C37.5111 22.7795 36.7348 23.5412 35.2115 23.5412H2.78834C2.0553 23.5412 1.49491 23.3257 1.07812 22.8945C0.646915 22.4775 0.431412 21.9027 0.431412 21.2418V2.73065C0.431412 1.2073 1.19309 0.431208 2.78834 0.431208H35.2115Z" fill="#315881"/>
<path fill-rule="evenodd" clip-rule="evenodd" d="M3.04672 1.49463C2.42885 1.49463 2.0407 1.59517 1.8252 1.81088C1.63834 2.05522 1.55222 2.45759 1.55222 3.04682V7.05647H36.4474V3.04682C36.4474 1.99774 35.9297 1.49463 34.895 1.49463H3.04672Z" fill="#315881"/>
<path fill-rule="evenodd" clip-rule="evenodd" d="M1.55222 20.8683C1.55222 21.9313 2.05512 22.4777 3.04672 22.4777H34.895C35.9297 22.4777 36.4474 21.9316 36.4474 20.8683V16.8584H1.55222V20.8683Z" fill="#DFA43B"/>
<path fill-rule="evenodd" clip-rule="evenodd" d="M13.1075 8.76705C13.1075 8.95391 13.0786 9.09752 13.0069 9.19826L10.4918 13.5818L10.3335 8.2353H6.30946L7.66037 8.88201C8.04831 9.12636 8.2496 9.4424 8.2496 9.84497L8.62312 15.5222H10.5921L15.3064 8.2353H12.8919C13.0355 8.36468 13.1075 8.56577 13.1075 8.76705ZM29.3768 8.4508L29.5346 8.2351H27.077C27.1631 8.32122 27.1919 8.36448 27.1919 8.39312C27.1629 8.50788 27.1054 8.57998 27.077 8.6661L23.4983 15.1909C23.4122 15.3059 23.3257 15.4066 23.2253 15.5218H25.2518L25.151 15.3061C25.151 15.1192 25.2518 14.7745 25.4673 14.2858L25.8985 13.4809H27.9824C28.069 14.1565 28.1264 14.717 28.1551 15.134L27.9824 15.522H30.4976L30.1238 14.9758L29.3768 8.4508ZM27.8819 12.4607H26.3872L27.6662 10.003L27.8819 12.4607ZM21.6731 7.86157C20.8972 7.86157 20.2359 8.07728 19.6467 8.50828C18.9998 8.88201 18.6837 9.35628 18.6837 9.94571C18.6837 10.6213 18.9136 11.2105 19.3735 11.6559L20.7679 12.6187C21.271 12.9782 21.5153 13.2942 21.5153 13.5818C21.5153 13.8548 21.3855 14.0992 21.1416 14.286C20.8972 14.4729 20.6238 14.559 20.2792 14.559C19.7761 14.559 18.9138 14.1999 17.721 13.5388V14.8753C18.6551 15.4359 19.5608 15.7235 20.4372 15.7235C21.271 15.7235 21.9752 15.4933 22.579 14.976C23.2257 14.5015 23.5418 13.9414 23.5418 13.3233C23.5418 12.8055 23.3116 12.3315 22.7943 11.8284L21.4574 10.8654C21.0124 10.5061 20.7679 10.1899 20.7679 9.94571C20.7679 9.38533 21.0983 9.09772 21.7739 9.09772C22.2337 9.09772 22.9093 9.35648 23.8146 9.90266L24.0879 8.50849C23.3259 8.07707 22.5355 7.86157 21.6731 7.86157ZM16.3268 15.522C16.298 15.2202 16.2405 14.9472 16.2116 14.6596L18.037 8.76705L18.4682 8.2353H15.8381C15.8669 8.36468 15.8956 8.53713 15.9244 8.66651C15.9244 8.79589 15.9244 8.95412 15.8956 9.09772L14.0704 14.9327L13.6967 15.5222H16.3268V15.522Z" fill="#315881"/>
</svg>
